<?xml version="1.0" standalone="no"?>
<!DOCTYPE svg PUBLIC "-//W3C//DTD SVG 20010904//EN"
 "http://www.w3.org/TR/2001/REC-SVG-20010904/DTD/svg10.dtd">
<svg version="1.0" xmlns="http://www.w3.org/2000/svg"
 width="700.000000pt" height="700.000000pt" viewBox="0 0 700.000000 700.000000"
 preserveAspectRatio="xMidYMid meet">
<metadata>
Created by potrace 1.11, written by Peter Selinger 2001-2013
</metadata>
<g transform="translate(0.000000,700.000000) scale(0.100000,-0.100000)"
fill="#000000" stroke="none">
<path d="M3447 5035 c-1 -1 -49 -5 -107 -9 -110 -7 -185 -14 -235 -21 -16 -3
-48 -8 -70 -11 -22 -2 -60 -9 -85 -14 -25 -6 -61 -12 -80 -15 -134 -22 -402
-103 -566 -171 -646 -267 -1044 -728 -1047 -1214 -1 -137 46 -331 108 -445 17
-32 75 -128 88 -147 13 -19 15 -12 -82 -288 -34 -96 -80 -229 -103 -295 -22
-66 -54 -156 -69 -199 -16 -44 -27 -82 -25 -84 2 -2 91 15 197 38 106 23 200
43 209 45 8 2 35 8 60 14 25 5 56 12 70 15 14 2 66 13 115 25 50 11 101 22
115 25 14 2 99 21 190 40 l165 37 60 -22 c33 -12 74 -28 90 -34 130 -55 479
-135 690 -160 28 -3 64 -8 80 -10 173 -22 555 -23 745 -1 19 3 58 7 85 10 98
11 291 47 390 72 55 14 107 27 115 29 8 2 53 15 100 30 421 134 783 358 1006
623 354 421 358 923 10 1347 -48 59 -167 176 -216 214 -19 14 -42 32 -50 40
-8 8 -61 45 -118 82 -327 216 -782 374 -1222 424 -25 3 -58 7 -75 10 -93 13
-526 29 -538 20z"/>
</g>
</svg>
